<svg version="1.2" xmlns="http://www.w3.org/2000/svg" viewBox="0 0 1000 1000" width="1000" height="1000"><style>.a{fill:#0f0}</style><path class="a" d="m910 231v538h-821v-538z"/><path  d="m764 297v19h-529v-19z"/><path  d="m756 515v10h-447v-10zm-492 25c-11.1 0-20-8.9-20-20 0-11.1 8.9-20 20-20 11.1 0 20 8.9 20 20 0 11.1-8.9 20-20 20zm491 83v10h-447v-10zm-492 25c-11.1 0-20-8.9-20-20 0-11.1 8.9-20 20-20 11.1 0 20 8.9 20 20 0 11.1-8.9 20-20 20zm493-77v10h-447v-10zm-492 25c-11.1 0-20-8.9-20-20 0-11.1 8.9-20 20-20 11.1 0 20 8.9 20 20 0 11.1-8.9 20-20 20z"/></svg>